<?xml version="1.0" encoding="UTF-8"?>
<svg width="64" height="64" viewBox="0 0 64 64" fill="none" xmlns="http://www.w3.org/2000/svg">
  <path d="M32 8C18.745 8 8 18.745 8 32C8 45.255 18.745 56 32 56C45.255 56 56 45.255 56 32C56 18.745 45.255 8 32 8ZM32 52C20.954 52 12 43.046 12 32C12 20.954 20.954 12 32 12C43.046 12 52 20.954 52 32C52 43.046 43.046 52 32 52Z" fill="#666666"/>
  <path d="M32 24C30.343 24 29 25.343 29 27V37C29 38.657 30.343 40 32 40C33.657 40 35 38.657 35 37V27C35 25.343 33.657 24 32 24Z" fill="#666666"/>
  <path d="M32 44C33.105 44 34 43.105 34 42C34 40.895 33.105 40 32 40C30.895 40 30 40.895 30 42C30 43.105 30.895 44 32 44Z" fill="#666666"/>
</svg>  